<?xml version="1.0" encoding="UTF-8" standalone="no"?>
<!DOCTYPE svg PUBLIC "-//W3C//DTD SVG 1.1//EN"
  "http://www.w3.org/Graphics/SVG/1.1/DTD/svg11.dtd">
<svg xmlns:xlink="http://www.w3.org/1999/xlink" width="400.0" height="300.0" viewBox="0 0 400.0 300.0" xmlns="http://www.w3.org/2000/svg" version="1.1">
<style>
:root {
  --bg: #121212;
  --bg-mild: #282828;
  --text: #e0e0e0;
  --text-accent-strong: #b9e0e1;
  --text-accent: #93e0e3;
  --text-dim: #63898b;
}

@media (prefers-color-scheme: light) {
  :root {
    --bg: #ffffff;
    --bg-mild: #eee;
    --text: #333333;
    --text-accent-strong: #76898a;
    --text-accent: #63898b;
    --text-dim: #999;
  }
}
svg {
  background-color: var(--bg);
}
text {
  fill: var(--text);
  font-family: monospace;
}
polygon, path, circle {
  stroke: var(--text);
  fill: var(--bg-mild);
}
line {
  stroke: var(--text-accent);
}
line.tic {
  stroke: var(--bg-mild);
}
.ai {
  fill: rgba(173, 216, 230, 0.7);
  stroke-width: 0;
}
.human {
  fill: rgba(255, 182, 193, 0.7);
  stroke-width: 0;
}
rect.ai {
  stroke: var(--text-dim);
  stroke-width: 0.5;
}
rect.human {
  stroke: var(--text-dim);
  stroke-width: 0.5;
}
text.tic-value-x, text.tic-value-y {
  fill: var(--text-dim);
  font-family: monospace;
}
text.tic-value-x {
  text-anchor: middle;
  dominant-baseline: hanging;
}
text.tic-value-y {
  text-anchor: end;
  dominant-baseline: central;
}
text.label-x, text.label-y {
  text-anchor: middle;
}
text.boxplot-label {
  text-anchor: middle;
  dominant-baseline: hanging;
}
text.label-x {
  transform: rotate(-90 15,200);
}
rect.boxplot {
  fill: var(--text-dim);
}
.lineplot-line {
  fill: none;
}
</style>
<line x1="50.0" y1="250.0" x2="50.0" y2="10.0" class='tic'/>
<line x1="50.0" y1="256.4" x2="50.0" y2="250.0"/>
<text x='50.0' y='262.8' class='tic-value-x'>0</text>
<line x1="118.0" y1="250.0" x2="118.0" y2="10.0" class='tic'/>
<line x1="118.0" y1="256.4" x2="118.0" y2="250.0"/>
<text x='118.0' y='262.8' class='tic-value-x'>1</text>
<line x1="186.0" y1="250.0" x2="186.0" y2="10.0" class='tic'/>
<line x1="186.0" y1="256.4" x2="186.0" y2="250.0"/>
<text x='186.0' y='262.8' class='tic-value-x'>2</text>
<line x1="254.0" y1="250.0" x2="254.0" y2="10.0" class='tic'/>
<line x1="254.0" y1="256.4" x2="254.0" y2="250.0"/>
<text x='254.0' y='262.8' class='tic-value-x'>3</text>
<line x1="322.0" y1="250.0" x2="322.0" y2="10.0" class='tic'/>
<line x1="322.0" y1="256.4" x2="322.0" y2="250.0"/>
<text x='322.0' y='262.8' class='tic-value-x'>4</text>
<line x1="390.0" y1="250.0" x2="390.0" y2="10.0" class='tic'/>
<line x1="390.0" y1="256.4" x2="390.0" y2="250.0"/>
<text x='390.0' y='262.8' class='tic-value-x'>5</text>
<line x1="50.0" y1="250.0" x2="390.0" y2="250.0" class='tic'/>
<line x1="43.2" y1="250.0" x2="50.0" y2="250.0"/>
<text x='36.4' y='250.0' class='tic-value-y'>0</text>
<line x1="50.0" y1="202.0" x2="390.0" y2="202.0" class='tic'/>
<line x1="43.2" y1="202.0" x2="50.0" y2="202.0"/>
<text x='36.4' y='202.0' class='tic-value-y'>5</text>
<line x1="50.0" y1="154.0" x2="390.0" y2="154.0" class='tic'/>
<line x1="43.2" y1="154.0" x2="50.0" y2="154.0"/>
<text x='36.4' y='154.0' class='tic-value-y'>10</text>
<line x1="50.0" y1="106.0" x2="390.0" y2="106.0" class='tic'/>
<line x1="43.2" y1="106.0" x2="50.0" y2="106.0"/>
<text x='36.4' y='106.0' class='tic-value-y'>15</text>
<line x1="50.0" y1="58.0" x2="390.0" y2="58.0" class='tic'/>
<line x1="43.2" y1="58.0" x2="50.0" y2="58.0"/>
<text x='36.4' y='58.0' class='tic-value-y'>20</text>
<line x1="50.0" y1="10.0" x2="390.0" y2="10.0" class='tic'/>
<line x1="43.2" y1="10.0" x2="50.0" y2="10.0"/>
<text x='36.4' y='10.0' class='tic-value-y'>25</text>
<line x1="50.0" y1="250.0" x2="50.0" y2="10.0"/>
<line x1="50.0" y1="250.0" x2="390.0" y2="250.0"/>
<rect x="340.0" y="20.0" width="10.0" height="10.0" class='exp'/>
<text x='355.0' y='29'>exp</text>
<rect x="340.0" y="40.0" width="10.0" height="10.0" class='lin'/>
<text x='355.0' y='49'>lin</text>
<text x='200.0' y='300.0' class='label-x'>time</text>
<text x='15' y='150.0' class='label-y' transform='rotate(-90 15,150.0)'>effort</text>
<path d='M 50.0 250.0 L 118.0 240.4 L 186.0 211.6 L 254.0 163.6 L 322.0 96.4 L 390.0 10.0'  class='lineplot-line'/>
<path d='M 50.0 250.0 L 118.0 240.4 L 186.0 230.8 L 254.0 221.2 L 322.0 211.6 L 390.0 202.0'  class='lineplot-line'/>
</svg>